<svg width="20" height="20" viewBox="0 0 20 20" fill="none" xmlns="http://www.w3.org/2000/svg">
  <path d="M19.4279 2.73421C19.1337 2.43948 18.6563 2.43897 18.3621 2.73296L9.3194 11.7518L6.05683 8.20831C5.77491 7.9023 5.29827 7.88245 4.99175 8.16433C4.68546 8.44624 4.66585 8.92312 4.94776 9.22941L8.74175 13.3498C8.88069 13.5008 9.07515 13.5885 9.28018 13.5927C9.28569 13.593 9.29101 13.593 9.29628 13.593C9.49554 13.593 9.68722 13.5138 9.82843 13.3731L19.4264 3.80026C19.7214 3.50632 19.7219 3.02894 19.4279 2.73421Z" fill="#3D88C8"/>
  <path d="M19.2462 9.24621C18.8299 9.24621 18.4925 9.58363 18.4925 10C18.4925 14.6829 14.6829 18.4925 10 18.4925C5.31734 18.4925 1.50754 14.6829 1.50754 10C1.50754 5.31734 5.31734 1.50754 10 1.50754C10.4163 1.50754 10.7538 1.17012 10.7538 0.753789C10.7538 0.337422 10.4163 0 10 0C4.48594 0 0 4.48594 0 10C0 15.5138 4.48594 20 10 20C15.5138 20 20 15.5138 20 10C20 9.58367 19.6626 9.24621 19.2462 9.24621Z" fill="#3D88C8"/>
</svg>
