<svg width="16" height="15" viewBox="0 0 16 15" fill="none" xmlns="http://www.w3.org/2000/svg">
<path d="M7.99998 3.24136L7.59717 2.69355C7.32336 2.32116 7.01588 2.00638 6.68084 1.75157L6.68082 1.75155C6.02213 1.25053 5.28233 1.00012 4.4696 1.00012C3.36907 1.00012 2.36555 1.43177 1.63398 2.21211L7.99998 3.24136ZM7.99998 3.24136L8.40281 2.69357M7.99998 3.24136L8.40281 2.69357M8.40281 2.69357C8.67675 2.32106 8.9841 2.0064 9.31903 1.75158C9.97786 1.25053 10.7177 1.00012 11.5304 1.00012C12.6309 1.00012 13.6343 1.43177 14.3659 2.21214L8.40281 2.69357ZM5.8805 12.3468L5.88052 12.3468L5.8825 12.3485C6.43219 12.8093 7.05769 13.3336 7.70746 13.8923L7.7078 13.8926C7.78736 13.9611 7.89089 14 8 14C8.10911 14 8.21276 13.961 8.29199 13.8928L8.29225 13.8926C8.93709 13.338 9.55838 12.8171 10.1052 12.3587L10.1198 12.3465L10.1199 12.3465C11.743 10.9861 13.0964 9.84974 14.0308 8.74076L14.0309 8.74074C15.058 7.52192 15.5 6.41385 15.5 5.2291C15.5 4.05212 15.0902 2.98483 14.3659 2.21216L5.8805 12.3468ZM5.8805 12.3468C4.25713 10.9863 2.90373 9.84975 1.96927 8.74087C0.942117 7.52189 0.5 6.41381 0.5 5.22922C0.5 4.05212 0.90978 2.98484 1.63394 2.21216L5.8805 12.3468Z" stroke="#272528"/>
</svg>
