<svg width="32" height="32" viewBox="0 0 32 32" fill="none" xmlns="http://www.w3.org/2000/svg">
<path fill-rule="evenodd" clip-rule="evenodd" d="M16 0C7.16344 0 0 7.16344 0 16C0 24.8366 7.16344 32 16 32C24.8366 32 32 24.8366 32 16C32 7.16344 24.8366 0 16 0ZM17.3028 20.5175C17.145 20.6838 16.837 20.7174 16.837 20.7174H15.8169C15.8169 20.7174 13.5665 20.8501 11.584 18.8246C9.42206 16.6148 7.51303 12.2304 7.51303 12.2304C7.51303 12.2304 7.40284 11.9428 7.52221 11.8043C7.6566 11.6478 8.02305 11.638 8.02305 11.638L10.4613 11.6224C10.4613 11.6224 10.6908 11.6593 10.8553 11.7781C10.9914 11.8764 11.0673 12.0591 11.0673 12.0591C11.0673 12.0591 11.4613 13.0374 11.983 13.9224C13.0022 15.6504 13.4763 16.0281 13.8219 15.843C14.3261 15.5734 14.175 13.4004 14.175 13.4004C14.175 13.4004 14.1842 12.6122 13.9213 12.2607C13.7176 11.9886 13.3336 11.9092 13.1642 11.887C13.0264 11.869 13.2518 11.556 13.544 11.4159C13.983 11.2053 14.7577 11.193 15.6734 11.2021C16.3871 11.2094 16.5924 11.2529 16.8712 11.3192C17.5183 11.4725 17.4981 11.9637 17.4545 13.0238C17.4414 13.3408 17.4263 13.7088 17.4263 14.1338C17.4263 14.2293 17.4235 14.3311 17.4205 14.4358C17.4054 14.9789 17.3881 15.6008 17.7527 15.8323C17.9397 15.9503 18.3963 15.8495 19.539 13.9453C20.0807 13.0424 20.4864 11.9813 20.4864 11.9813C20.4864 11.9813 20.5757 11.792 20.7135 11.7109C20.8545 11.6281 21.0449 11.6535 21.0449 11.6535L23.6108 11.638C23.6108 11.638 24.3821 11.547 24.5065 11.8895C24.6375 12.2476 24.2185 13.085 23.1701 14.4566C22.1756 15.758 21.6916 16.2372 21.736 16.661C21.7685 16.9707 22.0831 17.2507 22.6868 17.8004C23.947 18.949 24.2848 19.5533 24.366 19.6984C24.3727 19.7105 24.3777 19.7194 24.3813 19.7251C24.9464 20.6453 23.7544 20.7174 23.7544 20.7174L21.4747 20.7485C21.4747 20.7485 20.9856 20.8436 20.3412 20.4093C20.0036 20.182 19.6738 19.8108 19.3596 19.4572C18.8798 18.9172 18.4365 18.4184 18.0582 18.5362C17.423 18.7345 17.4422 20.0775 17.4422 20.0775C17.4422 20.0775 17.4472 20.3651 17.3028 20.5175Z" fill="#272528"/>
</svg>
