<svg width="15" height="15" viewBox="0 0 15 15" fill="none" xmlns="http://www.w3.org/2000/svg">
<path fill-rule="evenodd" clip-rule="evenodd" d="M8.33403 0H6.66737V1.66667H8.33403V0ZM8.33436 13.3333H6.66769V14.9999H8.33436V13.3333ZM2.78627 1.60704L1.60776 2.78555L2.78627 3.96407L3.96479 2.78555L2.78627 1.60704ZM12.2137 11.0352L11.0352 12.2137L12.2137 13.3923L13.3922 12.2137L12.2137 11.0352ZM0 8.33266V6.66599H1.66667V8.33266H0ZM13.3338 8.33299V6.66633H15.0004V8.33299H13.3338ZM1.60759 12.2141L2.7861 13.3927L3.96461 12.2141L2.7861 11.0356L1.60759 12.2141ZM11.0348 2.78657L12.2133 3.96509L13.3918 2.78657L12.2133 1.60806L11.0348 2.78657ZM7.49986 11.6665C9.80105 11.6665 11.6665 9.80105 11.6665 7.49986C11.6665 5.19868 9.80105 3.3332 7.49986 3.3332C5.19868 3.3332 3.3332 5.19868 3.3332 7.49986C3.3332 9.80105 5.19868 11.6665 7.49986 11.6665Z" fill="white"/>
</svg>
