<svg width="12" height="16" viewBox="0 0 12 16" fill="none" xmlns="http://www.w3.org/2000/svg">
<path fill-rule="evenodd" clip-rule="evenodd" d="M0 6.77971C0 3.46531 2.6915 0.768799 5.99982 0.768799C9.30813 0.768799 11.9996 3.46531 11.9996 6.77974V6.9459C11.9996 8.62216 11.0403 10.5755 9.14842 12.7516C7.77693 14.3292 6.42457 15.4292 6.36768 15.4752L5.99982 15.773L5.63196 15.4752C5.57509 15.4291 4.22273 14.3291 2.85121 12.7516C0.959257 10.5755 0 8.62213 0 6.94587V6.77971ZM3 6.65869C3 5.00403 4.34581 3.65784 6 3.65784C7.65422 3.65784 9 5.00403 9 6.65869C9 8.31336 7.65419 9.65955 6 9.65955C4.34581 9.65955 3 8.31336 3 6.65869Z" fill="white"/>
</svg>
