<svg width="22" height="20" viewBox="0 0 22 20" fill="none" xmlns="http://www.w3.org/2000/svg">
<path d="M11 3.92205L10.4286 3.11473C10.0514 2.58169 9.62835 2.13197 9.16835 1.76849L9.16832 1.76846C8.26453 1.05421 7.25349 0.7 6.14571 0.7C4.64504 0.7 3.27102 1.31105 2.26481 2.4262C1.2675 3.5318 0.7 5.0634 0.7 6.75591C0.7 8.46056 1.31293 10.05 2.72568 11.7919C4.01085 13.3764 5.87181 15 8.10376 16.9435L8.1038 16.9436L8.10689 16.9463C8.86263 17.6044 9.72257 18.3533 10.6159 19.1514L10.6164 19.1518C10.7245 19.2486 10.8606 19.3 11 19.3C11.1394 19.3 11.2757 19.2485 11.3834 19.1521L11.3837 19.1518C12.2705 18.3594 13.125 17.6152 13.877 16.9602L13.8967 16.9431L13.8967 16.943C16.1284 14.9998 17.9893 13.3764 19.2745 11.7918L19.2745 11.7917C20.6872 10.05 21.3 8.4606 21.3 6.75574C21.3 5.06339 20.7325 3.53179 19.735 2.4262C18.7288 1.31104 17.3549 0.7 15.8543 0.7C14.7466 0.7 13.7355 1.05418 12.8316 1.76842L11 3.92205ZM11 3.92205L11.5714 3.11476M11 3.92205L11.5714 3.11476M11.5714 3.11476C11.9488 2.58155 12.3716 2.13198 12.8315 1.76849L11.5714 3.11476Z" stroke="white" stroke-width="1.4"/>
</svg>
