<svg width="17" height="10" viewBox="0 0 17 10" fill="none" xmlns="http://www.w3.org/2000/svg">
<path d="M6 0C6 1.38071 4.88071 2.5 3.5 2.5C2.11929 2.5 1 1.38071 1 0" stroke="white" stroke-width="2"/>
<path d="M11 0C11 1.38071 9.88071 2.5 8.5 2.5C7.11929 2.5 6 1.38071 6 0" stroke="white" stroke-width="2"/>
<path d="M16 0C16 1.38071 14.8807 2.5 13.5 2.5C12.1193 2.5 11 1.38071 11 0" stroke="white" stroke-width="2"/>
<path d="M6 6C6 7.38071 4.88071 8.5 3.5 8.5C2.11929 8.5 1 7.38071 1 6" stroke="white" stroke-width="2"/>
<path d="M11 6C11 7.38071 9.88071 8.5 8.5 8.5C7.11929 8.5 6 7.38071 6 6" stroke="white" stroke-width="2"/>
<path d="M16 6C16 7.38071 14.8807 8.5 13.5 8.5C12.1193 8.5 11 7.38071 11 6" stroke="white" stroke-width="2"/>
</svg>
