<svg width="38" height="24" viewBox="0 0 38 24" fill="none" xmlns="http://www.w3.org/2000/svg">
<mask id="mask0" mask-type="alpha" maskUnits="userSpaceOnUse" x="0" y="0" width="38" height="24">
<path fill-rule="evenodd" clip-rule="evenodd" d="M0 24V0H38V24H0Z" fill="white"/>
</mask>
<g mask="url(#mask0)">
<path fill-rule="evenodd" clip-rule="evenodd" d="M34.5959 -0.00109863H3.39064C3.26065 -0.00109863 3.13043 -0.00109863 3.00067 -0.000419131C2.89112 0.000486871 2.7818 0.00161937 2.67225 0.00456388C2.43364 0.0109059 2.19295 0.0247224 1.95732 0.066625C1.71801 0.108981 1.49524 0.17829 1.27798 0.287463C1.06417 0.394598 0.868724 0.534802 0.699004 0.701959C0.529514 0.869343 0.387354 1.06187 0.278724 1.27297C0.168027 1.48724 0.0977506 1.70694 0.0550336 1.94318C0.0123166 2.1758 -0.00169274 2.41294 -0.00812326 2.64805C-0.0111089 2.75609 -0.0124868 2.86391 -0.0131758 2.97172C-0.0138648 3.09992 -0.0136351 3.22812 -0.0136351 3.35655V20.6426C-0.0136351 20.771 -0.0138648 20.899 -0.0131758 21.0274C-0.0124868 21.1353 -0.0111089 21.2433 -0.00812326 21.3511C-0.00169274 21.586 0.0123166 21.8234 0.0550336 22.0558C0.0977506 22.292 0.168027 22.5117 0.278724 22.7262C0.387354 22.9371 0.529514 23.1298 0.699004 23.297C0.868724 23.4644 1.06417 23.6046 1.27798 23.7115C1.49524 23.8209 1.71801 23.8902 1.95732 23.9328C2.19295 23.9742 2.43364 23.9883 2.67225 23.9946C2.7818 23.9971 2.89112 23.9987 3.00067 23.9991C3.13043 24 3.26065 24 3.39064 24H34.5959C34.7256 24 34.8559 24 34.9856 23.9991C35.0949 23.9987 35.2042 23.9971 35.3143 23.9946C35.5524 23.9883 35.7931 23.9742 36.0292 23.9328C36.2683 23.8902 36.491 23.8209 36.7085 23.7115C36.9223 23.6046 37.1173 23.4644 37.2873 23.297C37.4565 23.1298 37.5987 22.9371 37.7076 22.7262C37.8185 22.5117 37.8888 22.292 37.9312 22.0558C37.974 21.8234 37.9877 21.586 37.9942 21.3511C37.9972 21.2433 37.9985 21.1353 37.9992 21.0274C38.0001 20.899 38.0001 20.771 38.0001 20.6426V3.35655C38.0001 3.22812 38.0001 3.09992 37.9992 2.97172C37.9985 2.86391 37.9972 2.75609 37.9942 2.64805C37.9877 2.41294 37.974 2.1758 37.9312 1.94318C37.8888 1.70694 37.8185 1.48724 37.7076 1.27297C37.5987 1.06187 37.4565 0.869343 37.2873 0.701959C37.1173 0.534802 36.9223 0.394598 36.7085 0.287463C36.491 0.17829 36.2683 0.108981 36.0292 0.066625C35.7931 0.0247224 35.5524 0.0109059 35.3143 0.00456388C35.2042 0.00161937 35.0949 0.000486871 34.9856 -0.000419131C34.8559 -0.00109863 34.7256 -0.00109863 34.5959 -0.00109863Z" fill="#1A1919"/>
</g>
<path fill-rule="evenodd" clip-rule="evenodd" d="M34.5957 0.798828L34.9797 0.799508C35.0835 0.800187 35.1875 0.80132 35.292 0.804264C35.4739 0.809021 35.6868 0.81876 35.8853 0.853868C36.0575 0.884445 36.2022 0.931104 36.3409 1.00064C36.478 1.06927 36.6034 1.15942 36.713 1.26723C36.823 1.37595 36.9144 1.49985 36.9849 1.63643C37.0552 1.77233 37.102 1.91412 37.133 2.08535C37.1684 2.27901 37.1783 2.48943 37.1831 2.66995C37.1861 2.77165 37.1874 2.87357 37.1879 2.97799C37.1888 3.10415 37.1888 3.23009 37.1888 3.35647V20.6425C37.1888 20.7689 37.1888 20.8949 37.1879 21.0235C37.1874 21.1254 37.1861 21.2274 37.1831 21.3295C37.1783 21.5096 37.1684 21.72 37.1326 21.9157C37.102 22.0847 37.0552 22.2265 36.9844 22.363C36.9141 22.4994 36.823 22.6231 36.7134 22.7311C36.6032 22.8398 36.4782 22.9295 36.3395 22.9988C36.2017 23.0681 36.0575 23.1148 35.8869 23.1449C35.6843 23.1805 35.4627 23.1904 35.2957 23.1948C35.1908 23.1972 35.0863 23.1986 34.979 23.1991C34.8516 23.2 34.7234 23.2 34.5957 23.2H3.39047C3.38886 23.2 3.38725 23.2 3.38542 23.2C3.25933 23.2 3.13279 23.2 3.00441 23.1991C2.89968 23.1986 2.79519 23.1972 2.69414 23.195C2.52327 23.1904 2.30142 23.1805 2.10069 23.1451C1.92845 23.1148 1.78422 23.0681 1.64458 22.9979C1.50725 22.9293 1.38231 22.8396 1.27207 22.7307C1.16275 22.6231 1.07181 22.4996 1.00153 22.363C0.931026 22.2267 0.883946 22.0844 0.852941 21.9134C0.817344 21.718 0.807468 21.5087 0.802416 21.3295C0.79966 21.2271 0.798512 21.1245 0.797823 21.0228L0.797363 20.722V3.2772L0.797823 2.97708C0.798512 2.87448 0.79966 2.7721 0.802416 2.66972C0.807468 2.49033 0.817344 2.28082 0.853401 2.08377C0.883946 1.91457 0.931026 1.7721 1.00176 1.63507C1.07158 1.49962 1.16275 1.37595 1.27253 1.26768C1.38208 1.15942 1.50771 1.06972 1.64573 1.00041C1.78376 0.930878 1.92845 0.884445 2.10069 0.853868C2.29912 0.81876 2.51202 0.809021 2.69437 0.804264C2.79817 0.80132 2.90221 0.800187 3.00533 0.799508L3.39047 0.798828H34.5957Z" fill="#FFFFFE"/>
<path fill-rule="evenodd" clip-rule="evenodd" d="M9.97817 8.10081C10.3006 7.7033 10.5192 7.16944 10.4616 6.62402C9.98988 6.64713 9.41412 6.93093 9.08088 7.32889C8.78163 7.66955 8.51683 8.22561 8.58573 8.74815C9.11533 8.79345 9.64447 8.48722 9.97817 8.10081Z" fill="#1A1919"/>
<path fill-rule="evenodd" clip-rule="evenodd" d="M10.455 8.85033C9.68608 8.80503 9.03223 9.28068 8.66501 9.28068C8.29755 9.28068 7.73511 8.87298 7.12673 8.88408C6.33509 8.89541 5.60063 9.33686 5.19873 10.039C4.3724 11.4438 4.98078 13.5273 5.78436 14.6712C6.17456 15.2372 6.6449 15.8603 7.26453 15.8381C7.84994 15.8155 8.0796 15.4641 8.79109 15.4641C9.50235 15.4641 9.70905 15.8381 10.3289 15.8268C10.9715 15.8155 11.3734 15.2605 11.7636 14.6938C12.2112 14.0487 12.3945 13.4259 12.4062 13.3917C12.3945 13.3801 11.1667 12.9158 11.1555 11.5228C11.1437 10.3563 12.1193 9.80163 12.1653 9.76721C11.6143 8.96358 10.7535 8.87298 10.455 8.85033Z" fill="#1A1919"/>
<path fill-rule="evenodd" clip-rule="evenodd" d="M16.2307 11.758H17.7648C18.929 11.758 19.5916 11.1399 19.5916 10.0683C19.5916 8.99698 18.929 8.38452 17.7708 8.38452H16.2307V11.758ZM18.1231 7.27185C19.7945 7.27185 20.9587 8.4082 20.9587 10.0626C20.9587 11.7228 19.7706 12.8651 18.0813 12.8651H16.2306V15.7677H14.8936V7.27185H18.1231Z" fill="#1A1919"/>
<path fill-rule="evenodd" clip-rule="evenodd" d="M25.35 13.4598V12.9828L23.8636 13.077C23.0279 13.13 22.5922 13.436 22.5922 13.9719C22.5922 14.4899 23.0458 14.8256 23.7561 14.8256C24.6635 14.8256 25.35 14.2544 25.35 13.4598ZM21.2905 14.0073C21.2905 12.918 22.1322 12.294 23.6843 12.1998L25.3498 12.0997V11.6288C25.3498 10.9398 24.8902 10.5631 24.0724 10.5631C23.3977 10.5631 22.9083 10.9044 22.8068 11.4286H21.6008C21.6369 10.3275 22.6873 9.52686 24.1082 9.52686C25.6364 9.52686 26.6334 10.3158 26.6334 11.5404V15.7676H25.3976V14.7491H25.3677C25.0156 15.4143 24.2394 15.8322 23.3977 15.8322C22.1561 15.8322 21.2905 15.1024 21.2905 14.0073Z" fill="#1A1919"/>
<path fill-rule="evenodd" clip-rule="evenodd" d="M27.7694 18.0401V17.0217C27.853 17.0333 28.0558 17.0451 28.1633 17.0451C28.7542 17.0451 29.0886 16.798 29.2916 16.1619L29.4111 15.7853L27.1484 9.60339H28.5452L30.1214 14.6195H30.1513L31.7272 9.60339H33.0884L30.7422 16.0974C30.205 17.5869 29.59 18.0756 28.2887 18.0756C28.1872 18.0756 27.8588 18.0639 27.7694 18.0401Z" fill="#1A1919"/>
</svg>
