<svg width="39" height="24" viewBox="0 0 39 24" fill="none" xmlns="http://www.w3.org/2000/svg">
<path fill-rule="evenodd" clip-rule="evenodd" d="M14.2271 21.4343H24.7726V2.56567H14.2271V21.4343Z" fill="#7673C0"/>
<path fill-rule="evenodd" clip-rule="evenodd" d="M14.8968 12C14.8968 8.172 16.697 4.763 19.5002 2.56567C17.4499 0.958667 14.8633 0 12.0518 0C5.39581 0 0 5.37267 0 12C0 18.6273 5.39581 24 12.0518 24C14.8633 24 17.4499 23.0413 19.5002 21.4343C16.697 19.237 14.8968 15.828 14.8968 12Z" fill="#EB001B"/>
<path fill-rule="evenodd" clip-rule="evenodd" d="M39.0004 12C39.0004 18.6273 33.6045 24 26.9486 24C24.137 24 21.5504 23.0413 19.5005 21.4343C22.3037 19.237 24.1035 15.828 24.1035 12C24.1035 8.172 22.3037 4.763 19.5005 2.56567C21.5504 0.958667 24.137 0 26.9486 0C33.6045 0 39.0004 5.37267 39.0004 12Z" fill="#00A1DF"/>
</svg>
