<svg width="133" height="16" viewBox="0 0 133 16" fill="none" xmlns="http://www.w3.org/2000/svg">
<path d="M0.14 15V1.51H4.7C5.84 1.51 6.81533 1.69367 7.626 2.061C8.44933 2.42833 9.07633 2.96033 9.507 3.657C9.93767 4.35367 10.153 5.196 10.153 6.184C10.153 6.868 10.02 7.495 9.754 8.065C9.50067 8.635 9.13333 9.129 8.652 9.547C8.18333 9.95233 7.61967 10.269 6.961 10.497C6.30233 10.7123 5.56767 10.82 4.757 10.82C4.32633 10.82 3.87033 10.782 3.389 10.706V15H0.14ZM3.389 4.265V7.97C3.83233 8.03333 4.23767 8.065 4.605 8.065C5.31433 8.065 5.859 7.90667 6.239 7.59C6.63167 7.26067 6.828 6.78567 6.828 6.165C6.828 5.557 6.638 5.08833 6.258 4.759C5.89067 4.42967 5.35233 4.265 4.643 4.265H3.389ZM15.8441 15.285C15.0841 15.285 14.3875 15.1583 13.7541 14.905C13.1208 14.639 12.5698 14.2653 12.1011 13.784C11.6325 13.3027 11.2715 12.7327 11.0181 12.074C10.7648 11.4153 10.6381 10.6933 10.6381 9.908C10.6381 9.148 10.7648 8.445 11.0181 7.799C11.2841 7.153 11.6451 6.58933 12.1011 6.108C12.5698 5.62667 13.1145 5.253 13.7351 4.987C14.3558 4.721 15.0271 4.588 15.7491 4.588C16.5091 4.588 17.1995 4.721 17.8201 4.987C18.4408 5.24033 18.9728 5.60767 19.4161 6.089C19.8595 6.57033 20.2015 7.14667 20.4421 7.818C20.6828 8.48933 20.8031 9.23667 20.8031 10.06V10.744H13.8111C13.9378 11.3647 14.1785 11.846 14.5331 12.188C14.8878 12.5173 15.3375 12.682 15.8821 12.682C16.2875 12.682 16.6421 12.5997 16.9461 12.435C17.2628 12.2703 17.5415 12.0233 17.7821 11.694L20.6131 12.435C20.3725 13.0177 20.0115 13.5243 19.5301 13.955C19.0615 14.373 18.5105 14.7023 17.8771 14.943C17.2438 15.171 16.5661 15.285 15.8441 15.285ZM15.7491 6.906C15.2425 6.906 14.8181 7.07067 14.4761 7.4C14.1468 7.71667 13.9251 8.17267 13.8111 8.768H17.6111C17.5098 8.17267 17.2945 7.71667 16.9651 7.4C16.6485 7.07067 16.2431 6.906 15.7491 6.906ZM21.8985 15V4.873H24.7485L24.8625 6.488C25.1032 5.93067 25.4388 5.5 25.8695 5.196C26.3002 4.892 26.8005 4.74 27.3705 4.74C27.5352 4.74 27.6998 4.75267 27.8645 4.778C28.0292 4.80333 28.1748 4.84767 28.3015 4.911L27.9975 7.989C27.8582 7.93833 27.7125 7.90667 27.5605 7.894C27.4212 7.86867 27.2755 7.856 27.1235 7.856C26.4142 7.856 25.8822 8.05867 25.5275 8.464C25.1728 8.85667 24.9955 9.433 24.9955 10.193V15H21.8985ZM33.0552 15.285C32.3206 15.285 31.6492 15.171 31.0412 14.943C30.4332 14.715 29.9202 14.392 29.5022 13.974C29.0969 13.556 28.8056 13.062 28.6282 12.492L31.4782 11.979C31.5922 12.2703 31.7886 12.5047 32.0672 12.682C32.3586 12.8593 32.6942 12.948 33.0742 12.948C33.4669 12.948 33.7709 12.872 33.9862 12.72C34.2142 12.5553 34.3282 12.3463 34.3282 12.093C34.3282 11.8523 34.2079 11.6623 33.9672 11.523C33.7392 11.3837 33.3402 11.2697 32.7702 11.181L32.3142 11.105C31.2122 10.915 30.3636 10.554 29.7682 10.022C29.1856 9.47733 28.8942 8.787 28.8942 7.951C28.8942 7.457 28.9892 7.00733 29.1792 6.602C29.3819 6.184 29.6669 5.82933 30.0342 5.538C30.4016 5.234 30.8322 4.99967 31.3262 4.835C31.8329 4.67033 32.3839 4.588 32.9792 4.588C33.6759 4.588 34.3092 4.702 34.8792 4.93C35.4619 5.14533 35.9496 5.45567 36.3422 5.861C36.7349 6.26633 37.0072 6.74767 37.1592 7.305L34.3282 7.818C34.2142 7.53933 34.0369 7.324 33.7962 7.172C33.5682 7.00733 33.2959 6.925 32.9792 6.925C32.6246 6.925 32.3459 7.001 32.1432 7.153C31.9532 7.29233 31.8582 7.48233 31.8582 7.723C31.8582 7.93833 31.9659 8.10933 32.1812 8.236C32.3966 8.36267 32.7956 8.47667 33.3782 8.578L33.8342 8.654C34.9616 8.844 35.8229 9.21133 36.4182 9.756C37.0136 10.288 37.3112 10.972 37.3112 11.808C37.3112 12.3147 37.2036 12.7833 36.9882 13.214C36.7856 13.6447 36.4942 14.012 36.1142 14.316C35.7469 14.62 35.2972 14.8543 34.7652 15.019C34.2459 15.1963 33.6759 15.285 33.0552 15.285ZM43.426 15.285C42.666 15.285 41.9567 15.152 41.298 14.886C40.652 14.62 40.082 14.2463 39.588 13.765C39.1067 13.2837 38.733 12.72 38.467 12.074C38.201 11.428 38.068 10.725 38.068 9.965C38.068 9.205 38.201 8.502 38.467 7.856C38.7457 7.19733 39.1257 6.62733 39.607 6.146C40.101 5.652 40.6774 5.272 41.336 5.006C42.0074 4.72733 42.7294 4.588 43.502 4.588C44.262 4.588 44.965 4.721 45.611 4.987C46.2697 5.253 46.8397 5.633 47.321 6.127C47.815 6.60833 48.195 7.172 48.461 7.818C48.727 8.464 48.86 9.167 48.86 9.927C48.86 10.687 48.7207 11.3963 48.442 12.055C48.176 12.701 47.796 13.2647 47.302 13.746C46.8207 14.2273 46.2444 14.6073 45.573 14.886C44.9144 15.152 44.1987 15.285 43.426 15.285ZM43.464 12.492C43.882 12.492 44.262 12.3843 44.604 12.169C44.946 11.941 45.212 11.637 45.402 11.257C45.6047 10.8643 45.706 10.4273 45.706 9.946C45.706 9.452 45.6047 9.015 45.402 8.635C45.212 8.24233 44.946 7.93833 44.604 7.723C44.262 7.495 43.882 7.381 43.464 7.381C43.046 7.381 42.666 7.495 42.324 7.723C41.982 7.93833 41.7097 8.24233 41.507 8.635C41.317 9.015 41.222 9.452 41.222 9.946C41.222 10.4273 41.317 10.8643 41.507 11.257C41.7097 11.637 41.982 11.941 42.324 12.169C42.666 12.3843 43.046 12.492 43.464 12.492ZM50.052 15V4.873H52.902L52.997 6.203C53.2883 5.709 53.6873 5.31633 54.194 5.025C54.7007 4.73367 55.2833 4.588 55.942 4.588C56.664 4.588 57.291 4.76533 57.823 5.12C58.3677 5.47467 58.7857 5.975 59.077 6.621C59.381 7.25433 59.533 8.008 59.533 8.882V15H56.436V9.319C56.436 8.72367 56.2967 8.255 56.018 7.913C55.752 7.55833 55.3783 7.381 54.897 7.381C54.555 7.381 54.251 7.46333 53.985 7.628C53.7317 7.79267 53.529 8.02067 53.377 8.312C53.225 8.59067 53.149 8.90733 53.149 9.262V15H50.052ZM64.1221 15.285C63.6155 15.285 63.1468 15.2027 62.7161 15.038C62.2855 14.886 61.9118 14.6707 61.5951 14.392C61.2785 14.1133 61.0315 13.784 60.8541 13.404C60.6768 13.0113 60.5881 12.587 60.5881 12.131C60.5881 11.485 60.7591 10.915 61.1011 10.421C61.4558 9.927 61.9435 9.547 62.5641 9.281C63.1975 9.00233 63.9321 8.863 64.7681 8.863C65.1735 8.863 65.5408 8.89467 65.8701 8.958C66.1995 9.02133 66.5351 9.12267 66.8771 9.262V8.749C66.8771 8.255 66.7315 7.86233 66.4401 7.571C66.1615 7.267 65.7815 7.115 65.3001 7.115C64.9455 7.115 64.6225 7.20367 64.3311 7.381C64.0398 7.54567 63.8371 7.77367 63.7231 8.065L60.9491 7.59C61.0505 7.14667 61.2341 6.74133 61.5001 6.374C61.7661 6.00667 62.0955 5.69 62.4881 5.424C62.8935 5.158 63.3368 4.95533 63.8181 4.816C64.2995 4.664 64.8125 4.588 65.3571 4.588C66.0285 4.588 66.6365 4.69567 67.1811 4.911C67.7385 5.11367 68.2198 5.41133 68.6251 5.804C69.0305 6.184 69.3408 6.64 69.5561 7.172C69.7715 7.69133 69.8791 8.26767 69.8791 8.901V15H67.1051L67.0291 13.803C66.7758 14.2463 66.3958 14.6073 65.8891 14.886C65.3825 15.152 64.7935 15.285 64.1221 15.285ZM63.6281 11.941C63.6281 12.245 63.7485 12.4983 63.9891 12.701C64.2425 12.891 64.5718 12.986 64.9771 12.986C65.3445 12.986 65.6675 12.91 65.9461 12.758C66.2375 12.606 66.4655 12.397 66.6301 12.131C66.7948 11.865 66.8771 11.5673 66.8771 11.238V11.143C66.6491 11.0417 66.4021 10.9657 66.1361 10.915C65.8701 10.8517 65.6041 10.82 65.3381 10.82C64.8061 10.82 64.3881 10.9213 64.0841 11.124C63.7801 11.3267 63.6281 11.599 63.6281 11.941ZM71.4249 15V0.788H74.5219V15H71.4249Z" fill="black"/>
<path d="M77.7822 15.076C77.4275 15.076 77.1045 14.9937 76.8132 14.829C76.5345 14.6517 76.3128 14.4237 76.1482 14.145C75.9835 13.8537 75.9012 13.537 75.9012 13.195C75.9012 12.853 75.9835 12.5427 76.1482 12.264C76.3128 11.9727 76.5345 11.7447 76.8132 11.58C77.1045 11.4027 77.4275 11.314 77.7822 11.314C78.1368 11.314 78.4535 11.4027 78.7322 11.58C79.0235 11.7447 79.2515 11.9727 79.4162 12.264C79.5808 12.5427 79.6632 12.853 79.6632 13.195C79.6632 13.537 79.5808 13.8537 79.4162 14.145C79.2515 14.4237 79.0235 14.6517 78.7322 14.829C78.4535 14.9937 78.1368 15.076 77.7822 15.076ZM87.3192 15.38C86.4958 15.38 85.7232 15.266 85.0012 15.038C84.2792 14.81 83.6205 14.487 83.0252 14.069C82.4425 13.6383 81.9358 13.1317 81.5052 12.549C81.0745 11.9663 80.7452 11.3203 80.5172 10.611C80.2892 9.889 80.1752 9.11633 80.1752 8.293C80.1752 7.46967 80.2892 6.697 80.5172 5.975C80.7578 5.253 81.0935 4.59433 81.5242 3.999C81.9548 3.40367 82.4678 2.897 83.0632 2.479C83.6585 2.04833 84.3172 1.719 85.0392 1.491C85.7612 1.25033 86.5338 1.13 87.3572 1.13C88.3072 1.13 89.1812 1.282 89.9792 1.586C90.7898 1.87733 91.4928 2.308 92.0882 2.878C92.6962 3.43533 93.1775 4.113 93.5322 4.911L90.3022 5.842C89.9982 5.28467 89.5928 4.86033 89.0862 4.569C88.5922 4.27767 88.0158 4.132 87.3572 4.132C86.8125 4.132 86.3122 4.23333 85.8562 4.436C85.4002 4.63867 85.0012 4.92367 84.6592 5.291C84.3298 5.65833 84.0702 6.09533 83.8802 6.602C83.6902 7.096 83.5952 7.64067 83.5952 8.236C83.5952 8.844 83.6902 9.40133 83.8802 9.908C84.0702 10.4147 84.3362 10.8517 84.6782 11.219C85.0328 11.5863 85.4445 11.8713 85.9132 12.074C86.3945 12.2767 86.9202 12.378 87.4902 12.378C88.0475 12.378 88.5478 12.283 88.9912 12.093C89.4472 11.903 89.8208 11.6307 90.1122 11.276C90.4035 10.9213 90.5998 10.5097 90.7012 10.041H87.6422V7.381H94.1022V8.92C94.1022 9.87 93.9375 10.7377 93.6082 11.523C93.2788 12.3083 92.8102 12.9923 92.2022 13.575C91.5942 14.145 90.8722 14.5883 90.0362 14.905C89.2128 15.2217 88.3072 15.38 87.3192 15.38ZM100.022 15.285C99.085 15.285 98.2617 15.0887 97.5524 14.696C96.843 14.2907 96.292 13.727 95.8994 13.005C95.5194 12.283 95.3294 11.428 95.3294 10.44V4.873H98.4264V10.497C98.4264 11.1177 98.5657 11.6053 98.8444 11.96C99.1357 12.3147 99.5347 12.492 100.041 12.492C100.548 12.492 100.941 12.3147 101.219 11.96C101.511 11.6053 101.656 11.1177 101.656 10.497V4.873H104.753V10.44C104.753 11.162 104.639 11.8207 104.411 12.416C104.196 13.0113 103.879 13.5243 103.461 13.955C103.056 14.3857 102.562 14.715 101.979 14.943C101.397 15.171 100.744 15.285 100.022 15.285ZM109.553 2.213C109.553 2.52967 109.477 2.81467 109.325 3.068C109.185 3.32133 108.983 3.524 108.717 3.676C108.451 3.828 108.153 3.904 107.824 3.904C107.494 3.904 107.197 3.828 106.931 3.676C106.677 3.524 106.475 3.32133 106.323 3.068C106.183 2.81467 106.114 2.52967 106.114 2.213C106.114 1.89633 106.183 1.61133 106.323 1.358C106.475 1.10467 106.677 0.901999 106.931 0.749999C107.197 0.597999 107.494 0.522 107.824 0.522C108.153 0.522 108.451 0.597999 108.717 0.749999C108.983 0.901999 109.185 1.10467 109.325 1.358C109.477 1.61133 109.553 1.89633 109.553 2.213ZM106.285 15V4.873H109.382V15H106.285ZM115.131 15.285C114.485 15.285 113.883 15.152 113.326 14.886C112.781 14.6073 112.3 14.2337 111.882 13.765C111.477 13.2837 111.154 12.7263 110.913 12.093C110.685 11.447 110.571 10.7503 110.571 10.003C110.571 9.243 110.691 8.53367 110.932 7.875C111.173 7.21633 111.508 6.64 111.939 6.146C112.37 5.652 112.876 5.272 113.459 5.006C114.042 4.72733 114.669 4.588 115.34 4.588C115.935 4.588 116.474 4.702 116.955 4.93C117.436 5.158 117.842 5.48733 118.171 5.918V0.788H121.268V15H118.418L118.323 13.556C117.981 14.088 117.531 14.5123 116.974 14.829C116.417 15.133 115.802 15.285 115.131 15.285ZM115.967 12.492C116.385 12.492 116.765 12.3843 117.107 12.169C117.449 11.941 117.715 11.637 117.905 11.257C118.108 10.8643 118.209 10.421 118.209 9.927C118.209 9.433 118.108 8.996 117.905 8.616C117.715 8.236 117.449 7.93833 117.107 7.723C116.765 7.495 116.385 7.381 115.967 7.381C115.549 7.381 115.169 7.495 114.827 7.723C114.485 7.93833 114.213 8.236 114.01 8.616C113.82 8.996 113.725 9.433 113.725 9.927C113.725 10.421 113.82 10.8643 114.01 11.257C114.213 11.637 114.485 11.941 114.827 12.169C115.169 12.3843 115.549 12.492 115.967 12.492ZM127.679 15.285C126.919 15.285 126.222 15.1583 125.589 14.905C124.956 14.639 124.405 14.2653 123.936 13.784C123.467 13.3027 123.106 12.7327 122.853 12.074C122.6 11.4153 122.473 10.6933 122.473 9.908C122.473 9.148 122.6 8.445 122.853 7.799C123.119 7.153 123.48 6.58933 123.936 6.108C124.405 5.62667 124.949 5.253 125.57 4.987C126.191 4.721 126.862 4.588 127.584 4.588C128.344 4.588 129.034 4.721 129.655 4.987C130.276 5.24033 130.808 5.60767 131.251 6.089C131.694 6.57033 132.036 7.14667 132.277 7.818C132.518 8.48933 132.638 9.23667 132.638 10.06V10.744H125.646C125.773 11.3647 126.013 11.846 126.368 12.188C126.723 12.5173 127.172 12.682 127.717 12.682C128.122 12.682 128.477 12.5997 128.781 12.435C129.098 12.2703 129.376 12.0233 129.617 11.694L132.448 12.435C132.207 13.0177 131.846 13.5243 131.365 13.955C130.896 14.373 130.345 14.7023 129.712 14.943C129.079 15.171 128.401 15.285 127.679 15.285ZM127.584 6.906C127.077 6.906 126.653 7.07067 126.311 7.4C125.982 7.71667 125.76 8.17267 125.646 8.768H129.446C129.345 8.17267 129.129 7.71667 128.8 7.4C128.483 7.07067 128.078 6.906 127.584 6.906Z" fill="#7140B8"/>
</svg>
