<svg width="56" height="56" viewBox="0 0 56 56" fill="none" xmlns="http://www.w3.org/2000/svg">
<circle cx="28" cy="28" r="27.5" fill="#272528" stroke="black"/>
<path d="M28.2122 22.7096C26.0066 22.7096 24.2122 24.504 24.2122 26.7096C24.2122 28.9011 25.9774 30.7096 28.2122 30.7096C30.4745 30.7096 32.2122 28.877 32.2122 26.7096C32.2122 24.504 30.4178 22.7096 28.2122 22.7096ZM28.2122 29.3852C26.7341 29.3852 25.5366 28.1837 25.5366 26.7096C25.5366 25.2392 26.7418 24.0341 28.2122 24.0341C29.6826 24.0341 30.8833 25.2392 30.8833 26.7096C30.8833 28.1622 29.7137 29.3852 28.2122 29.3852Z" fill="white"/>
<path d="M43.1406 25.9199C43.1397 25.9191 43.1389 25.9182 43.1382 25.9174L30.0834 12.8631C29.527 12.3064 28.7871 12 28.0002 12C27.2132 12 26.4734 12.3064 25.9167 12.8631L12.8688 25.9108C12.8644 25.9152 12.8597 25.9199 12.8556 25.9243C11.7129 27.0735 11.7148 28.9382 12.8612 30.0846C13.3849 30.6086 14.0764 30.9118 14.816 30.9438C14.8463 30.9467 14.8765 30.9482 14.9071 30.9482H15.4271V40.5551C15.4271 42.4564 16.9742 44.0032 18.8755 44.0032H23.9829C24.5008 44.0032 24.9205 43.5833 24.9205 43.0656V35.5336C24.9205 34.6661 25.6264 33.9605 26.4939 33.9605H29.5064C30.374 33.9605 31.0796 34.6661 31.0796 35.5336V43.0656C31.0796 43.5833 31.4993 44.0032 32.0172 44.0032H37.1246C39.0262 44.0032 40.573 42.4564 40.573 40.5551V30.9482H41.0555C41.8422 30.9482 42.582 30.6418 43.1389 30.0848C44.2865 28.9368 44.287 27.0687 43.1406 25.9199ZM41.8129 28.759C41.6104 28.9614 41.3414 29.073 41.0555 29.073H39.6354C39.1175 29.073 38.6978 29.4927 38.6978 30.0106V40.5551C38.6978 41.4224 37.9922 42.128 37.1246 42.128H32.9548V35.5336C32.9548 33.6323 31.408 32.0853 29.5064 32.0853H26.4939C24.5924 32.0853 23.0453 33.6323 23.0453 35.5336V42.128H18.8755C18.0082 42.128 17.3023 41.4224 17.3023 40.5551V30.0106C17.3023 29.4927 16.8826 29.073 16.3647 29.073H14.9691C14.9544 29.072 14.94 29.0713 14.9251 29.0711C14.6458 29.0662 14.3838 28.9553 14.1875 28.7588C13.77 28.3413 13.77 27.6617 14.1875 27.244C14.1873 27.2442 14.1878 27.244 14.1875 27.244L14.1887 27.2428L27.243 14.1889C27.4452 13.9865 27.714 13.8752 28.0002 13.8752C28.2861 13.8752 28.5549 13.9865 28.7573 14.1889L41.8087 27.2401C41.8107 27.242 41.8129 27.244 41.8148 27.2459C42.2301 27.6642 42.2294 28.3422 41.8129 28.759Z" fill="white"/>
</svg>
