<svg width="39" height="24" viewBox="0 0 39 24" fill="none" xmlns="http://www.w3.org/2000/svg">
<path fill-rule="evenodd" clip-rule="evenodd" d="M14.2266 21.4343H24.7725V2.56567H14.2266V21.4343Z" fill="#FF5F00"/>
<path fill-rule="evenodd" clip-rule="evenodd" d="M14.8965 12C14.8965 8.172 16.6967 4.76267 19.4999 2.56567C17.45 0.958667 14.863 0 12.0515 0C5.39549 0 0 5.37233 0 12C0 18.6273 5.39549 24 12.0515 24C14.863 24 17.45 23.0413 19.4999 21.4343C16.6967 19.237 14.8965 15.828 14.8965 12Z" fill="#EB001B"/>
<path fill-rule="evenodd" clip-rule="evenodd" d="M38.6236 19.436V18.97H38.5014L38.3611 19.2903L38.2205 18.97H38.0983V19.436H38.1847V19.0846L38.3163 19.3873H38.4057L38.5376 19.0836V19.436H38.6236ZM37.8498 19.4359V19.0496H38.0061V18.9706H37.6077V19.0496H37.7641V19.4359H37.8498ZM38.9999 12C38.9999 18.6273 33.6044 24 26.9484 24C24.1368 24 21.5503 23.0413 19.5 21.4343C22.3032 19.237 24.1034 15.828 24.1034 12C24.1034 8.172 22.3032 4.76267 19.5 2.56567C21.5503 0.958667 24.1368 0 26.9484 0C33.6044 0 38.9999 5.37233 38.9999 12Z" fill="#F79E1B"/>
</svg>
