<svg width="53" height="16" viewBox="0 0 53 16" fill="none" xmlns="http://www.w3.org/2000/svg">
<path fill-rule="evenodd" clip-rule="evenodd" d="M7.05978 0H0.0520821L0 0.318264C1.79671 0.735385 3.39312 1.34752 4.77952 2.11246L8.59878 16L13.1191 15.9936L19.8451 0.124656H15.3207L11.138 10.9675L10.6906 8.76474C10.5807 8.40513 10.4376 8.04123 10.2655 7.67755C10.3673 7.88799 10.4619 8.10077 10.5493 8.31566L9.02827 1.28938C8.76574 0.321324 8.00257 0.0346826 7.05978 0ZM38.6832 0.772273C37.838 0.460268 36.5113 0.124656 34.8565 0.124656C30.6391 0.124656 27.667 2.21017 27.6409 5.20091C27.6179 7.40958 29.7616 8.64426 31.3819 9.38014C33.043 10.1335 33.6029 10.6138 33.5966 11.2871C33.5841 12.3185 32.2678 12.7876 31.0393 12.7876C29.3323 12.7876 28.4255 12.5546 27.0225 11.9809L26.473 11.7376L25.8733 15.181C26.8689 15.61 28.7138 15.9815 30.6287 16C35.1166 16 38.0292 13.9401 38.0626 10.7452C38.0783 8.99732 36.9427 7.66616 34.4794 6.56696C32.9865 5.85571 32.0714 5.38154 32.0808 4.66106C32.0808 4.02268 32.856 3.33811 34.5264 3.33811C35.921 3.31656 36.9344 3.61625 37.72 3.92723L38.1044 4.10478L38.6832 0.772273ZM49.6019 0.124656H46.3608C45.3555 0.124656 44.6037 0.40875 44.1621 1.4423L37.9296 16H42.3383C42.3383 16 43.0561 14.0431 43.2215 13.6128C43.4468 13.6128 44.5078 13.6144 45.6343 13.6161L45.6405 13.6161C46.9143 13.6181 48.2699 13.6202 48.5944 13.6202C48.7197 14.1757 49.1048 16 49.1048 16H53L49.6019 0.124656ZM46.099 5.92312C46.099 5.92312 44.7763 9.44886 44.4282 10.3647H47.9116C47.7432 9.56864 46.9391 5.77684 46.9391 5.77684L46.6546 4.40725C46.5376 4.73838 46.3717 5.18315 46.2515 5.50547L46.2515 5.50556L46.2511 5.50661L46.251 5.50668C46.1552 5.76361 46.0885 5.9424 46.099 5.92312ZM21.6983 0.124656L19.0916 16H23.2595L25.8733 0.124656H21.6983Z" fill="#16216A"/>
</svg>
